<svg width="655" height="414" viewBox="0 0 655 414" fill="none" xmlns="http://www.w3.org/2000/svg">
<rect x="5" y="54" width="557" height="345" fill="#F9F9F9"/>
<rect x="43" y="300" width="114" height="114" rx="57" fill="#FE70BC"/>
<path d="M81.8638 332.67V380.035H115.019V345.3L102.389 332.67H81.8638Z" fill="white"/>
<path d="M102.976 329.795V345.341H118.521" stroke="#FE70BC" stroke-width="2" stroke-miterlimit="10" stroke-linecap="round" stroke-linejoin="round"/>
<path d="M89.7578 372.141H103.967M89.7578 348.458H96.0732H89.7578ZM89.7578 356.352H107.125H89.7578ZM89.7578 364.246H107.125H89.7578Z" stroke="#FE70BC" stroke-width="2" stroke-miterlimit="10" stroke-linecap="round" stroke-linejoin="round"/>
<g filter="url(#filter0_d_47_277)">
<rect x="342" y="28" width="255" height="89" fill="white"/>
</g>
<path d="M368.241 64V52.1H375.585V53.766H370.077V57.2H375.143V58.866H370.077V64H368.241ZM376.421 64L379.821 52.1H383.051L386.434 64H384.547L383.765 61.195H379.107L378.325 64H376.421ZM379.566 59.495H383.306L381.572 53.239H381.3L379.566 59.495ZM393.013 64.238C391.563 64.238 390.412 63.83 389.562 63.014C388.712 62.1867 388.287 60.9967 388.287 59.444V56.656C388.287 55.1033 388.712 53.919 389.562 53.103C390.412 52.2757 391.563 51.862 393.013 51.862C394.441 51.862 395.541 52.2587 396.311 53.052C397.093 53.8453 397.484 54.9277 397.484 56.299V56.401H395.665V56.248C395.665 55.4433 395.444 54.786 395.002 54.276C394.572 53.766 393.909 53.511 393.013 53.511C392.107 53.511 391.398 53.7887 390.888 54.344C390.378 54.888 390.123 55.6473 390.123 56.622V59.478C390.123 60.4413 390.378 61.2007 390.888 61.756C391.398 62.3113 392.107 62.589 393.013 62.589C393.909 62.589 394.572 62.334 395.002 61.824C395.444 61.3027 395.665 60.6453 395.665 59.852V59.563H397.484V59.801C397.484 61.1723 397.093 62.2547 396.311 63.048C395.541 63.8413 394.441 64.238 393.013 64.238ZM400.197 64V52.1H407.694V53.766H402.033V57.183H407.218V58.849H402.033V62.334H407.779V64H400.197ZM409.931 64V62.368H411.529V53.732H409.931V52.1H415.966C416.68 52.1 417.303 52.2247 417.836 52.474C418.369 52.712 418.782 53.0577 419.077 53.511C419.383 53.953 419.536 54.48 419.536 55.092V55.262C419.536 55.806 419.434 56.2537 419.23 56.605C419.026 56.9563 418.777 57.2283 418.482 57.421C418.199 57.6137 417.927 57.7497 417.666 57.829V58.101C417.927 58.169 418.204 58.305 418.499 58.509C418.805 58.7017 419.06 58.9737 419.264 59.325C419.479 59.6763 419.587 60.1353 419.587 60.702V60.872C419.587 61.5293 419.434 62.0903 419.128 62.555C418.822 63.0197 418.397 63.3767 417.853 63.626C417.32 63.8753 416.703 64 416 64H409.931ZM413.382 62.334H415.779C416.391 62.334 416.873 62.1867 417.224 61.892C417.575 61.5973 417.751 61.1893 417.751 60.668V60.515C417.751 59.9937 417.575 59.5857 417.224 59.291C416.884 58.9963 416.402 58.849 415.779 58.849H413.382V62.334ZM413.382 57.166H415.779C416.357 57.166 416.822 57.0243 417.173 56.741C417.524 56.4463 417.7 56.0497 417.7 55.551V55.381C417.7 54.8823 417.524 54.4913 417.173 54.208C416.833 53.9133 416.368 53.766 415.779 53.766H413.382V57.166ZM426.797 64.238C425.335 64.238 424.173 63.83 423.312 63.014C422.45 62.1867 422.02 60.9967 422.02 59.444V56.656C422.02 55.1033 422.45 53.919 423.312 53.103C424.173 52.2757 425.335 51.862 426.797 51.862C428.259 51.862 429.42 52.2757 430.282 53.103C431.154 53.919 431.591 55.1033 431.591 56.656V59.444C431.591 60.9967 431.154 62.1867 430.282 63.014C429.42 63.83 428.259 64.238 426.797 64.238ZM426.797 62.589C427.737 62.589 428.463 62.317 428.973 61.773C429.483 61.2177 429.738 60.464 429.738 59.512V56.588C429.738 55.636 429.483 54.888 428.973 54.344C428.463 53.7887 427.737 53.511 426.797 53.511C425.879 53.511 425.159 53.7887 424.638 54.344C424.116 54.888 423.856 55.636 423.856 56.588V59.512C423.856 60.464 424.116 61.2177 424.638 61.773C425.159 62.317 425.879 62.589 426.797 62.589ZM438.915 64.238C437.453 64.238 436.291 63.83 435.43 63.014C434.569 62.1867 434.138 60.9967 434.138 59.444V56.656C434.138 55.1033 434.569 53.919 435.43 53.103C436.291 52.2757 437.453 51.862 438.915 51.862C440.377 51.862 441.539 52.2757 442.4 53.103C443.273 53.919 443.709 55.1033 443.709 56.656V59.444C443.709 60.9967 443.273 62.1867 442.4 63.014C441.539 63.83 440.377 64.238 438.915 64.238ZM438.915 62.589C439.856 62.589 440.581 62.317 441.091 61.773C441.601 61.2177 441.856 60.464 441.856 59.512V56.588C441.856 55.636 441.601 54.888 441.091 54.344C440.581 53.7887 439.856 53.511 438.915 53.511C437.997 53.511 437.277 53.7887 436.756 54.344C436.235 54.888 435.974 55.636 435.974 56.588V59.512C435.974 60.464 436.235 61.2177 436.756 61.773C437.277 62.317 437.997 62.589 438.915 62.589ZM446.563 64V52.1H448.399V57.047H448.671L453.108 52.1H455.505L450.133 57.965L455.692 64H453.227L448.671 58.951H448.399V64H446.563ZM462.764 64V52.1H470.261V53.766H464.6V57.183H469.785V58.849H464.6V62.334H470.346V64H462.764ZM472.94 64V52.1H476.476L479.706 62.776H479.978V52.1H481.797V64H478.261L475.031 53.307H474.759V64H472.94ZM489.09 64.238C488.24 64.238 487.481 64.0567 486.812 63.694C486.144 63.32 485.617 62.776 485.231 62.062C484.846 61.348 484.653 60.4753 484.653 59.444V56.656C484.653 55.1033 485.078 53.919 485.928 53.103C486.778 52.2757 487.929 51.862 489.379 51.862C490.807 51.862 491.907 52.253 492.677 53.035C493.448 53.8057 493.833 54.8427 493.833 56.146V56.231H492.014V56.095C492.014 55.6077 491.918 55.1713 491.725 54.786C491.533 54.3893 491.244 54.0777 490.858 53.851C490.473 53.6243 489.98 53.511 489.379 53.511C488.473 53.511 487.764 53.7887 487.254 54.344C486.744 54.888 486.489 55.6473 486.489 56.622V59.478C486.489 60.4413 486.744 61.2063 487.254 61.773C487.764 62.3283 488.478 62.606 489.396 62.606C490.303 62.606 490.966 62.3567 491.385 61.858C491.805 61.3593 492.014 60.7133 492.014 59.92V59.699H488.818V58.118H493.833V64H492.133V62.793H491.861C491.759 63.0083 491.606 63.2293 491.402 63.456C491.21 63.6827 490.926 63.8697 490.552 64.017C490.19 64.1643 489.702 64.238 489.09 64.238ZM495.995 64L499.395 52.1H502.625L506.008 64H504.121L503.339 61.195H498.681L497.899 64H495.995ZM499.14 59.495H502.88L501.146 53.239H500.874L499.14 59.495ZM512.298 64.238C511.448 64.238 510.689 64.0567 510.02 63.694C509.351 63.32 508.824 62.776 508.439 62.062C508.054 61.348 507.861 60.4753 507.861 59.444V56.656C507.861 55.1033 508.286 53.919 509.136 53.103C509.986 52.2757 511.136 51.862 512.587 51.862C514.015 51.862 515.114 52.253 515.885 53.035C516.656 53.8057 517.041 54.8427 517.041 56.146V56.231H515.222V56.095C515.222 55.6077 515.126 55.1713 514.933 54.786C514.74 54.3893 514.451 54.0777 514.066 53.851C513.681 53.6243 513.188 53.511 512.587 53.511C511.68 53.511 510.972 53.7887 510.462 54.344C509.952 54.888 509.697 55.6473 509.697 56.622V59.478C509.697 60.4413 509.952 61.2063 510.462 61.773C510.972 62.3283 511.686 62.606 512.604 62.606C513.511 62.606 514.174 62.3567 514.593 61.858C515.012 61.3593 515.222 60.7133 515.222 59.92V59.699H512.026V58.118H517.041V64H515.341V62.793H515.069C514.967 63.0083 514.814 63.2293 514.61 63.456C514.417 63.6827 514.134 63.8697 513.76 64.017C513.397 64.1643 512.91 64.238 512.298 64.238ZM520.086 64V52.1H527.583V53.766H521.922V57.183H527.107V58.849H521.922V62.334H527.668V64H520.086ZM530.262 64V52.1H533.713L536.314 62.776H536.586L539.187 52.1H542.638V64H540.853V53.392H540.581L537.997 64H534.903L532.319 53.392H532.047V64H530.262ZM545.801 64V52.1H553.298V53.766H547.637V57.183H552.822V58.849H547.637V62.334H553.383V64H545.801ZM555.977 64V52.1H559.513L562.743 62.776H563.015V52.1H564.834V64H561.298L558.068 53.307H557.796V64H555.977ZM570.835 64V53.766H567.18V52.1H576.326V53.766H572.671V64H570.835Z" fill="#2B2B2B"/>
<path d="M370.87 91V81.91H370.6L369.19 85.24H367.18L369.325 80.5H372.79V91H370.87ZM374.412 91V89.74C374.412 89.01 374.532 88.405 374.772 87.925C375.012 87.435 375.357 87.035 375.807 86.725C376.267 86.405 376.827 86.145 377.487 85.945L378.492 85.63C378.862 85.51 379.172 85.365 379.422 85.195C379.672 85.015 379.862 84.8 379.992 84.55C380.132 84.3 380.202 84.015 380.202 83.695V83.635C380.202 83.135 380.032 82.74 379.692 82.45C379.352 82.15 378.887 82 378.297 82C377.717 82 377.247 82.16 376.887 82.48C376.537 82.79 376.362 83.24 376.362 83.83V84.1H374.442V83.86C374.442 83.1 374.612 82.455 374.952 81.925C375.292 81.395 375.752 80.99 376.332 80.71C376.922 80.43 377.577 80.29 378.297 80.29C379.017 80.29 379.667 80.43 380.247 80.71C380.827 80.98 381.282 81.365 381.612 81.865C381.952 82.355 382.122 82.935 382.122 83.605V83.755C382.122 84.425 381.982 84.995 381.702 85.465C381.432 85.925 381.062 86.305 380.592 86.605C380.122 86.895 379.587 87.135 378.987 87.325L378.027 87.625C377.597 87.755 377.262 87.9 377.022 88.06C376.782 88.21 376.612 88.38 376.512 88.57C376.422 88.75 376.377 88.97 376.377 89.23V89.29H382.032V91H374.412ZM387.248 91.21C386.458 91.21 385.758 91.07 385.148 90.79C384.538 90.51 384.058 90.11 383.708 89.59C383.368 89.06 383.198 88.435 383.198 87.715V87.445H385.118V87.655C385.118 88.215 385.313 88.665 385.703 89.005C386.093 89.335 386.608 89.5 387.248 89.5C387.898 89.5 388.398 89.345 388.748 89.035C389.108 88.725 389.288 88.335 389.288 87.865V87.715C389.288 87.395 389.208 87.135 389.048 86.935C388.888 86.735 388.673 86.59 388.403 86.5C388.133 86.4 387.828 86.35 387.488 86.35H385.388V84.25L388.778 82.45V82.21H383.468V80.5H390.908V83.05L387.743 84.73V84.97H388.298C388.768 84.97 389.223 85.065 389.663 85.255C390.113 85.445 390.483 85.74 390.773 86.14C391.063 86.53 391.208 87.04 391.208 87.67V87.85C391.208 88.53 391.043 89.125 390.713 89.635C390.383 90.135 389.918 90.525 389.318 90.805C388.728 91.075 388.038 91.21 387.248 91.21ZM396.674 91.21C395.434 91.21 394.439 90.87 393.689 90.19C392.939 89.5 392.564 88.46 392.564 87.07V84.43C392.564 83.08 392.939 82.055 393.689 81.355C394.439 80.645 395.434 80.29 396.674 80.29C397.924 80.29 398.919 80.645 399.659 81.355C400.409 82.055 400.784 83.08 400.784 84.43V87.07C400.784 88.46 400.409 89.5 399.659 90.19C398.919 90.87 397.924 91.21 396.674 91.21ZM396.674 89.5C397.424 89.5 397.974 89.295 398.324 88.885C398.684 88.475 398.864 87.89 398.864 87.13V84.34C398.864 83.57 398.664 82.99 398.264 82.6C397.874 82.2 397.344 82 396.674 82C395.984 82 395.444 82.205 395.054 82.615C394.674 83.025 394.484 83.6 394.484 84.34V87.13C394.484 87.92 394.664 88.515 395.024 88.915C395.394 89.305 395.944 89.5 396.674 89.5Z" fill="#4F4F4F"/>
<path d="M414.167 91V80.5H415.427V91H414.167ZM417.829 91V80.5H420.274L423.934 90.205H424.129V80.5H425.374V91H422.929L419.284 81.28H419.074V91H417.829ZM430.37 91V81.64H426.995V80.5H435.005V81.64H431.63V91H430.37ZM436.608 91V80.5H443.073V81.64H437.868V85.15H442.653V86.29H437.868V89.86H443.148V91H436.608ZM445.06 91V80.5H449.305C449.955 80.5 450.525 80.615 451.015 80.845C451.515 81.065 451.905 81.385 452.185 81.805C452.465 82.215 452.605 82.71 452.605 83.29V83.455C452.605 84.145 452.44 84.69 452.11 85.09C451.78 85.49 451.39 85.76 450.94 85.9V86.11C451.3 86.12 451.595 86.24 451.825 86.47C452.065 86.69 452.185 87.025 452.185 87.475V91H450.94V87.625C450.94 87.325 450.855 87.095 450.685 86.935C450.525 86.775 450.28 86.695 449.95 86.695H446.32V91H445.06ZM446.32 85.555H449.185C449.875 85.555 450.405 85.39 450.775 85.06C451.155 84.72 451.345 84.25 451.345 83.65V83.545C451.345 82.945 451.16 82.48 450.79 82.15C450.42 81.81 449.885 81.64 449.185 81.64H446.32V85.555ZM453.698 91L456.938 80.5H459.158L462.398 91H461.093L460.283 88.345H455.813L455.003 91H453.698ZM456.128 87.205H459.953L458.153 81.265H457.943L456.128 87.205ZM467.62 91.21C466.37 91.21 465.375 90.85 464.635 90.13C463.895 89.4 463.525 88.34 463.525 86.95V84.55C463.525 83.16 463.895 82.105 464.635 81.385C465.375 80.655 466.37 80.29 467.62 80.29C468.86 80.29 469.81 80.635 470.47 81.325C471.14 82.015 471.475 82.96 471.475 84.16V84.235H470.23V84.115C470.23 83.325 470.015 82.68 469.585 82.18C469.165 81.67 468.51 81.415 467.62 81.415C466.73 81.415 466.035 81.69 465.535 82.24C465.035 82.78 464.785 83.54 464.785 84.52V86.98C464.785 87.96 465.035 88.725 465.535 89.275C466.035 89.815 466.73 90.085 467.62 90.085C468.51 90.085 469.165 89.835 469.585 89.335C470.015 88.825 470.23 88.175 470.23 87.385V87.145H471.475V87.34C471.475 88.54 471.14 89.485 470.47 90.175C469.81 90.865 468.86 91.21 467.62 91.21ZM475.78 91V81.64H472.405V80.5H480.415V81.64H477.04V91H475.78ZM482.018 91V80.5H483.278V91H482.018ZM489.49 91.21C488.24 91.21 487.24 90.85 486.49 90.13C485.75 89.4 485.38 88.34 485.38 86.95V84.55C485.38 83.16 485.75 82.105 486.49 81.385C487.24 80.655 488.24 80.29 489.49 80.29C490.75 80.29 491.75 80.655 492.49 81.385C493.24 82.105 493.615 83.16 493.615 84.55V86.95C493.615 88.34 493.24 89.4 492.49 90.13C491.75 90.85 490.75 91.21 489.49 91.21ZM489.49 90.085C490.4 90.085 491.105 89.815 491.605 89.275C492.105 88.725 492.355 87.965 492.355 86.995V84.505C492.355 83.535 492.105 82.78 491.605 82.24C491.105 81.69 490.4 81.415 489.49 81.415C488.59 81.415 487.89 81.69 487.39 82.24C486.89 82.78 486.64 83.535 486.64 84.505V86.995C486.64 87.965 486.89 88.725 487.39 89.275C487.89 89.815 488.59 90.085 489.49 90.085ZM495.715 91V80.5H498.16L501.82 90.205H502.015V80.5H503.26V91H500.815L497.17 81.28H496.96V91H495.715ZM509.171 91.21C508.411 91.21 507.731 91.075 507.131 90.805C506.531 90.535 506.056 90.13 505.706 89.59C505.366 89.04 505.196 88.355 505.196 87.535V87.22H506.441V87.535C506.441 88.405 506.696 89.055 507.206 89.485C507.716 89.905 508.371 90.115 509.171 90.115C509.991 90.115 510.616 89.93 511.046 89.56C511.476 89.19 511.691 88.725 511.691 88.165C511.691 87.775 511.591 87.465 511.391 87.235C511.201 87.005 510.931 86.82 510.581 86.68C510.231 86.53 509.821 86.4 509.351 86.29L508.571 86.095C507.961 85.935 507.421 85.74 506.951 85.51C506.481 85.28 506.111 84.98 505.841 84.61C505.581 84.23 505.451 83.745 505.451 83.155C505.451 82.565 505.596 82.055 505.886 81.625C506.186 81.195 506.601 80.865 507.131 80.635C507.671 80.405 508.291 80.29 508.991 80.29C509.701 80.29 510.336 80.415 510.896 80.665C511.466 80.905 511.911 81.265 512.231 81.745C512.561 82.215 512.726 82.81 512.726 83.53V84.16H511.481V83.53C511.481 83.02 511.371 82.61 511.151 82.3C510.941 81.99 510.646 81.76 510.266 81.61C509.896 81.46 509.471 81.385 508.991 81.385C508.301 81.385 507.746 81.54 507.326 81.85C506.906 82.15 506.696 82.58 506.696 83.14C506.696 83.51 506.786 83.81 506.966 84.04C507.146 84.27 507.401 84.46 507.731 84.61C508.061 84.75 508.456 84.875 508.916 84.985L509.696 85.18C510.306 85.31 510.851 85.49 511.331 85.72C511.821 85.94 512.211 86.245 512.501 86.635C512.791 87.015 512.936 87.515 512.936 88.135C512.936 88.755 512.781 89.295 512.471 89.755C512.161 90.215 511.721 90.575 511.151 90.835C510.591 91.085 509.931 91.21 509.171 91.21Z" fill="#848484"/>
<rect x="181.5" y="184.5" width="205" height="84" stroke="#DADADA" stroke-dasharray="7 7"/>
<path d="M262.828 219V216.912H264.484V208.488H262.828V206.4H268.012C269.704 206.4 270.988 206.832 271.864 207.696C272.752 208.548 273.196 209.82 273.196 211.512V213.888C273.196 215.58 272.752 216.858 271.864 217.722C270.988 218.574 269.704 219 268.012 219H262.828ZM266.86 216.84H268.048C269.008 216.84 269.71 216.588 270.154 216.084C270.598 215.58 270.82 214.872 270.82 213.96V211.44C270.82 210.516 270.598 209.808 270.154 209.316C269.71 208.812 269.008 208.56 268.048 208.56H266.86V216.84ZM275.248 219V210.072H277.48V211.08H277.804C277.936 210.72 278.152 210.456 278.452 210.288C278.764 210.12 279.124 210.036 279.532 210.036H280.612V212.052H279.496C278.92 212.052 278.446 212.208 278.074 212.52C277.702 212.82 277.516 213.288 277.516 213.924V219H275.248ZM284.946 219.252C284.31 219.252 283.74 219.144 283.236 218.928C282.732 218.7 282.33 218.376 282.03 217.956C281.742 217.524 281.598 217.002 281.598 216.39C281.598 215.778 281.742 215.268 282.03 214.86C282.33 214.44 282.738 214.128 283.254 213.924C283.782 213.708 284.382 213.6 285.054 213.6H287.502V213.096C287.502 212.676 287.37 212.334 287.106 212.07C286.842 211.794 286.422 211.656 285.846 211.656C285.282 211.656 284.862 211.788 284.586 212.052C284.31 212.304 284.13 212.634 284.046 213.042L281.958 212.34C282.102 211.884 282.33 211.47 282.642 211.098C282.966 210.714 283.392 210.408 283.92 210.18C284.46 209.94 285.114 209.82 285.882 209.82C287.058 209.82 287.988 210.114 288.672 210.702C289.356 211.29 289.698 212.142 289.698 213.258V216.588C289.698 216.948 289.866 217.128 290.202 217.128H290.922V219H289.41C288.966 219 288.6 218.892 288.312 218.676C288.024 218.46 287.88 218.172 287.88 217.812V217.794H287.538C287.49 217.938 287.382 218.13 287.214 218.37C287.046 218.598 286.782 218.802 286.422 218.982C286.062 219.162 285.57 219.252 284.946 219.252ZM285.342 217.416C285.978 217.416 286.494 217.242 286.89 216.894C287.298 216.534 287.502 216.06 287.502 215.472V215.292H285.216C284.796 215.292 284.466 215.382 284.226 215.562C283.986 215.742 283.866 215.994 283.866 216.318C283.866 216.642 283.992 216.906 284.244 217.11C284.496 217.314 284.862 217.416 285.342 217.416ZM291.973 214.572V214.284C291.973 213.348 292.159 212.55 292.531 211.89C292.903 211.218 293.395 210.708 294.007 210.36C294.631 210 295.309 209.82 296.041 209.82C296.857 209.82 297.475 209.964 297.895 210.252C298.315 210.54 298.621 210.84 298.813 211.152H299.137V210.072H301.369V220.584C301.369 221.196 301.189 221.682 300.829 222.042C300.469 222.414 299.989 222.6 299.389 222.6H293.413V220.62H298.597C298.933 220.62 299.101 220.44 299.101 220.08V217.758H298.777C298.657 217.95 298.489 218.148 298.273 218.352C298.057 218.544 297.769 218.706 297.409 218.838C297.049 218.97 296.593 219.036 296.041 219.036C295.309 219.036 294.631 218.862 294.007 218.514C293.395 218.154 292.903 217.644 292.531 216.984C292.159 216.312 291.973 215.508 291.973 214.572ZM296.689 217.056C297.385 217.056 297.967 216.834 298.435 216.39C298.903 215.946 299.137 215.322 299.137 214.518V214.338C299.137 213.522 298.903 212.898 298.435 212.466C297.979 212.022 297.397 211.8 296.689 211.8C295.993 211.8 295.411 212.022 294.943 212.466C294.475 212.898 294.241 213.522 294.241 214.338V214.518C294.241 215.322 294.475 215.946 294.943 216.39C295.411 216.834 295.993 217.056 296.689 217.056ZM311.423 219C310.679 219 310.025 218.868 309.461 218.604C308.909 218.328 308.477 217.938 308.165 217.434C307.853 216.918 307.697 216.306 307.697 215.598C307.697 215.082 307.787 214.632 307.967 214.248C308.159 213.864 308.417 213.546 308.741 213.294C309.065 213.042 309.425 212.856 309.821 212.736V212.484C309.221 212.304 308.729 211.992 308.345 211.548C307.961 211.104 307.769 210.516 307.769 209.784C307.769 209.052 307.931 208.434 308.255 207.93C308.579 207.426 309.017 207.048 309.569 206.796C310.133 206.532 310.775 206.4 311.495 206.4H313.457V208.272H311.909C311.369 208.272 310.919 208.416 310.559 208.704C310.211 208.992 310.037 209.418 310.037 209.982C310.037 210.378 310.121 210.702 310.289 210.954C310.469 211.206 310.697 211.392 310.973 211.512C311.261 211.632 311.573 211.692 311.909 211.692H313.655V210.072H315.923V211.692H317.579V213.564H315.923V219H311.423ZM311.837 217.128H313.655V213.564H311.837C311.309 213.564 310.865 213.714 310.505 214.014C310.145 214.314 309.965 214.758 309.965 215.346C309.965 215.946 310.151 216.396 310.523 216.696C310.907 216.984 311.345 217.128 311.837 217.128ZM323.226 219V216.912H324.882V208.488H323.226V206.4H328.41C330.102 206.4 331.386 206.832 332.262 207.696C333.15 208.548 333.594 209.82 333.594 211.512V213.888C333.594 215.58 333.15 216.858 332.262 217.722C331.386 218.574 330.102 219 328.41 219H323.226ZM327.258 216.84H328.446C329.406 216.84 330.108 216.588 330.552 216.084C330.996 215.58 331.218 214.872 331.218 213.96V211.44C331.218 210.516 330.996 209.808 330.552 209.316C330.108 208.812 329.406 208.56 328.446 208.56H327.258V216.84ZM335.647 219V210.072H337.879V211.08H338.203C338.335 210.72 338.551 210.456 338.851 210.288C339.163 210.12 339.523 210.036 339.931 210.036H341.011V212.052H339.895C339.319 212.052 338.845 212.208 338.473 212.52C338.101 212.82 337.915 213.288 337.915 213.924V219H335.647ZM346.715 219.252C345.827 219.252 345.029 219.072 344.321 218.712C343.613 218.352 343.055 217.83 342.647 217.146C342.239 216.462 342.035 215.64 342.035 214.68V214.392C342.035 213.432 342.239 212.61 342.647 211.926C343.055 211.242 343.613 210.72 344.321 210.36C345.029 210 345.827 209.82 346.715 209.82C347.603 209.82 348.401 210 349.109 210.36C349.817 210.72 350.375 211.242 350.783 211.926C351.191 212.61 351.395 213.432 351.395 214.392V214.68C351.395 215.64 351.191 216.462 350.783 217.146C350.375 217.83 349.817 218.352 349.109 218.712C348.401 219.072 347.603 219.252 346.715 219.252ZM346.715 217.236C347.411 217.236 347.987 217.014 348.443 216.57C348.899 216.114 349.127 215.466 349.127 214.626V214.446C349.127 213.606 348.899 212.964 348.443 212.52C347.999 212.064 347.423 211.836 346.715 211.836C346.019 211.836 345.443 212.064 344.987 212.52C344.531 212.964 344.303 213.606 344.303 214.446V214.626C344.303 215.466 344.531 216.114 344.987 216.57C345.443 217.014 346.019 217.236 346.715 217.236ZM353.489 222.6V210.072H355.721V211.152H356.045C356.249 210.804 356.567 210.498 356.999 210.234C357.431 209.958 358.049 209.82 358.853 209.82C359.573 209.82 360.239 210 360.851 210.36C361.463 210.708 361.955 211.224 362.327 211.908C362.699 212.592 362.885 213.42 362.885 214.392V214.68C362.885 215.652 362.699 216.48 362.327 217.164C361.955 217.848 361.463 218.37 360.851 218.73C360.239 219.078 359.573 219.252 358.853 219.252C358.313 219.252 357.857 219.186 357.485 219.054C357.125 218.934 356.831 218.778 356.603 218.586C356.387 218.382 356.213 218.178 356.081 217.974H355.757V222.6H353.489ZM358.169 217.272C358.877 217.272 359.459 217.05 359.915 216.606C360.383 216.15 360.617 215.49 360.617 214.626V214.446C360.617 213.582 360.383 212.928 359.915 212.484C359.447 212.028 358.865 211.8 358.169 211.8C357.473 211.8 356.891 212.028 356.423 212.484C355.955 212.928 355.721 213.582 355.721 214.446V214.626C355.721 215.49 355.955 216.15 356.423 216.606C356.891 217.05 357.473 217.272 358.169 217.272Z" fill="#220022"/>
<path d="M262.32 236.53C262.32 238.07 263.43 239.14 264.88 239.14C266.33 239.14 267.44 238.07 267.44 236.53C267.44 234.99 266.33 233.93 264.88 233.93C263.43 233.93 262.32 234.99 262.32 236.53ZM263.42 236.53C263.42 235.54 264.01 234.92 264.88 234.92C265.75 234.92 266.34 235.54 266.34 236.53C266.34 237.52 265.75 238.15 264.88 238.15C264.01 238.15 263.42 237.52 263.42 236.53ZM269.462 234.07H268.392V239H269.492V236.17C269.492 235.45 269.912 235.08 270.582 235.08H271.382V234.05H270.862C270.192 234.05 269.782 234.29 269.602 234.83H269.462V234.07Z" fill="black"/>
<path d="M274.993 232V239H276.073V238.26H276.213C276.483 238.7 276.923 239.14 277.843 239.14C279.113 239.14 280.133 238.05 280.133 236.53C280.133 235.01 279.113 233.93 277.843 233.93C276.923 233.93 276.483 234.37 276.213 234.8H276.093V232H274.993ZM277.553 234.91C278.403 234.91 279.033 235.49 279.033 236.53C279.033 237.57 278.403 238.16 277.553 238.16C276.683 238.16 276.093 237.54 276.093 236.53C276.093 235.52 276.683 234.91 277.553 234.91ZM282.157 234.07H281.087V239H282.187V236.17C282.187 235.45 282.607 235.08 283.277 235.08H284.077V234.05H283.557C282.887 234.05 282.477 234.29 282.297 234.83H282.157V234.07ZM284.332 236.53C284.332 238.07 285.442 239.14 286.892 239.14C288.342 239.14 289.452 238.07 289.452 236.53C289.452 234.99 288.342 233.93 286.892 233.93C285.442 233.93 284.332 234.99 284.332 236.53ZM285.432 236.53C285.432 235.54 286.022 234.92 286.892 234.92C287.762 234.92 288.352 235.54 288.352 236.53C288.352 237.52 287.762 238.15 286.892 238.15C286.022 238.15 285.432 237.52 285.432 236.53ZM289.925 234.07L290.965 239H292.565L293.405 235.1H293.535L294.375 239H295.985L297.015 234.07H295.895L295.215 237.97H295.085L294.255 234.07H292.695L291.855 237.97H291.725L291.045 234.07H289.925ZM297.666 235.42C297.666 236.35 298.346 236.75 299.596 236.91L299.886 236.95C300.416 237.02 300.986 237.08 300.986 237.52C300.986 237.95 300.506 238.22 299.896 238.22C299.176 238.22 298.526 237.82 298.216 237.13L297.296 237.67C297.716 238.38 298.486 239.14 299.866 239.14C301.156 239.14 302.066 238.46 302.066 237.49C302.066 236.52 301.336 236.18 299.986 236.01L299.696 235.97C299.166 235.9 298.746 235.83 298.746 235.41C298.746 235.05 299.076 234.83 299.586 234.83C300.206 234.83 300.756 235.16 301.216 235.74L302.016 235.13C301.296 234.35 300.606 233.93 299.596 233.93C298.526 233.93 297.666 234.5 297.666 235.42ZM302.662 236.49C302.662 238 303.722 239.14 305.222 239.14C306.472 239.14 307.072 238.46 307.432 237.9L306.522 237.38C306.302 237.81 305.912 238.19 305.202 238.19C304.402 238.19 303.852 237.66 303.802 236.89H307.532V236.41C307.532 234.95 306.572 233.92 305.132 233.92C303.692 233.92 302.662 235.02 302.662 236.49ZM303.802 236.07C303.892 235.33 304.342 234.87 305.122 234.87C305.882 234.87 306.352 235.33 306.402 236.07H303.802ZM310.812 234.07V235.02H312.122V239H313.222V235.02H314.572V234.07H313.222V233.24C313.222 233.04 313.312 232.95 313.492 232.95H314.312V232H313.042C312.502 232 312.122 232.39 312.122 232.94V234.07H310.812ZM315.006 236.53C315.006 238.07 316.116 239.14 317.566 239.14C319.016 239.14 320.126 238.07 320.126 236.53C320.126 234.99 319.016 233.93 317.566 233.93C316.116 233.93 315.006 234.99 315.006 236.53ZM316.106 236.53C316.106 235.54 316.696 234.92 317.566 234.92C318.436 234.92 319.026 235.54 319.026 236.53C319.026 237.52 318.436 238.15 317.566 238.15C316.696 238.15 316.106 237.52 316.106 236.53ZM322.147 234.07H321.077V239H322.177V236.17C322.177 235.45 322.597 235.08 323.267 235.08H324.067V234.05H323.547C322.877 234.05 322.467 234.29 322.287 234.83H322.147V234.07ZM327.519 235.28L328.439 235.8C328.709 235.25 329.149 234.89 329.879 234.89C330.619 234.89 331.029 235.27 331.029 235.84V235.97L329.179 236.16C328.069 236.27 327.419 236.78 327.419 237.62C327.419 238.54 328.149 239.14 329.259 239.14C330.289 239.14 330.719 238.65 330.899 238.26H331.039V239H332.119V235.87C332.119 234.7 331.259 233.93 329.919 233.93C328.719 233.93 327.989 234.53 327.519 235.28ZM328.559 237.57C328.559 237.17 328.899 237 329.419 236.95L331.029 236.78V236.86C331.029 237.62 330.509 238.23 329.489 238.23C328.889 238.23 328.559 237.97 328.559 237.57ZM340.555 231.8C340.095 231.8 339.725 232.13 339.725 232.6C339.725 233.06 340.095 233.4 340.555 233.4C341.015 233.4 341.375 233.06 341.375 232.6C341.375 232.13 341.015 231.8 340.555 231.8ZM338.105 234.07V233.24C338.105 233.04 338.195 232.95 338.375 232.95H339.075V232H337.925C337.385 232 337.005 232.39 337.005 232.94V234.07H335.695V235.02H337.005V239H338.105V235.02H340.005V239H341.105V234.07H338.105ZM343.466 232H342.366V239H343.466V232ZM344.42 236.49C344.42 238 345.48 239.14 346.98 239.14C348.23 239.14 348.83 238.46 349.19 237.9L348.28 237.38C348.06 237.81 347.67 238.19 346.96 238.19C346.16 238.19 345.61 237.66 345.56 236.89H349.29V236.41C349.29 234.95 348.33 233.92 346.89 233.92C345.45 233.92 344.42 235.02 344.42 236.49ZM345.56 236.07C345.65 235.33 346.1 234.87 346.88 234.87C347.64 234.87 348.11 235.33 348.16 236.07H345.56Z" fill="#5EDC89"/>
<path d="M245.5 207.09H212.5C211.395 207.09 210.5 207.985 210.5 209.09V238.91C210.5 240.015 211.395 240.91 212.5 240.91H245.5C246.605 240.91 247.5 240.015 247.5 238.91V209.09C247.5 207.985 246.605 207.09 245.5 207.09Z" stroke="#202020" stroke-width="2" stroke-linecap="round" stroke-linejoin="round"/>
<path d="M214.597 235.65C222.699 216.38 233.777 228.014 241.017 235.834C241.575 236.437 243.463 234.428 243.463 234.428" stroke="#202020" stroke-width="2" stroke-linecap="round" stroke-linejoin="round"/>
<path d="M236.766 221.068C238.356 221.068 239.644 219.779 239.644 218.19C239.644 216.601 238.356 215.312 236.766 215.312C235.177 215.312 233.888 216.601 233.888 218.19C233.888 219.779 235.177 221.068 236.766 221.068Z" stroke="#202020" stroke-width="2" stroke-linecap="round" stroke-linejoin="round"/>
<g filter="url(#filter1_d_47_277)">
<rect x="292" y="296" width="343" height="79" rx="2.63333" fill="white"/>
</g>
<path d="M367.544 342L371.526 329.097H374.254L378.236 342H376.632L375.637 338.737H370.143L369.148 342H367.544ZM370.531 337.336H375.231L373.019 330.037H372.761L370.531 337.336ZM384.04 342.258C383.266 342.258 382.553 342.074 381.902 341.705C381.25 341.336 380.734 340.802 380.353 340.101C379.972 339.401 379.782 338.571 379.782 337.613V337.373C379.782 336.415 379.972 335.591 380.353 334.903C380.734 334.203 381.244 333.668 381.883 333.299C382.535 332.919 383.254 332.728 384.04 332.728C384.667 332.728 385.195 332.814 385.625 332.986C386.068 333.146 386.424 333.355 386.694 333.613C386.965 333.859 387.174 334.123 387.321 334.405H387.579V329.097H389.035V342H387.616V340.507H387.358C387.112 340.962 386.731 341.367 386.215 341.723C385.699 342.08 384.974 342.258 384.04 342.258ZM384.427 340.968C385.361 340.968 386.117 340.673 386.694 340.083C387.284 339.481 387.579 338.645 387.579 337.576V337.41C387.579 336.341 387.284 335.511 386.694 334.922C386.117 334.319 385.361 334.018 384.427 334.018C383.505 334.018 382.744 334.319 382.141 334.922C381.552 335.511 381.257 336.341 381.257 337.41V337.576C381.257 338.645 381.552 339.481 382.141 340.083C382.744 340.673 383.505 340.968 384.427 340.968ZM395.903 342.258C395.129 342.258 394.416 342.074 393.765 341.705C393.113 341.336 392.597 340.802 392.216 340.101C391.835 339.401 391.645 338.571 391.645 337.613V337.373C391.645 336.415 391.835 335.591 392.216 334.903C392.597 334.203 393.107 333.668 393.746 333.299C394.397 332.919 395.116 332.728 395.903 332.728C396.53 332.728 397.058 332.814 397.488 332.986C397.931 333.146 398.287 333.355 398.557 333.613C398.828 333.859 399.037 334.123 399.184 334.405H399.442V329.097H400.898V342H399.479V340.507H399.221C398.975 340.962 398.594 341.367 398.078 341.723C397.562 342.08 396.837 342.258 395.903 342.258ZM396.29 340.968C397.224 340.968 397.98 340.673 398.557 340.083C399.147 339.481 399.442 338.645 399.442 337.576V337.41C399.442 336.341 399.147 335.511 398.557 334.922C397.98 334.319 397.224 334.018 396.29 334.018C395.368 334.018 394.606 334.319 394.004 334.922C393.414 335.511 393.119 336.341 393.119 337.41V337.576C393.119 338.645 393.414 339.481 394.004 340.083C394.606 340.673 395.368 340.968 396.29 340.968ZM408.684 342V332.986H410.104V334.111H410.362C410.534 333.791 410.816 333.496 411.21 333.226C411.603 332.955 412.156 332.82 412.869 332.82C413.569 332.82 414.134 332.974 414.565 333.281C415.007 333.588 415.327 333.963 415.523 334.405H415.781C415.99 333.963 416.303 333.588 416.721 333.281C417.151 332.974 417.747 332.82 418.509 332.82C419.111 332.82 419.64 332.943 420.095 333.189C420.549 333.435 420.906 333.791 421.164 334.258C421.434 334.713 421.569 335.26 421.569 335.899V342H420.113V336.028C420.113 335.425 419.935 334.952 419.578 334.608C419.234 334.252 418.749 334.074 418.122 334.074C417.459 334.074 416.912 334.289 416.482 334.719C416.064 335.149 415.855 335.77 415.855 336.581V342H414.399V336.028C414.399 335.425 414.221 334.952 413.864 334.608C413.52 334.252 413.035 334.074 412.408 334.074C411.744 334.074 411.197 334.289 410.767 334.719C410.35 335.149 410.141 335.77 410.141 336.581V342H408.684ZM428.709 342.258C427.8 342.258 426.995 342.068 426.295 341.687C425.607 341.306 425.066 340.771 424.673 340.083C424.292 339.382 424.101 338.559 424.101 337.613V337.373C424.101 336.439 424.292 335.622 424.673 334.922C425.066 334.221 425.607 333.68 426.295 333.299C426.995 332.919 427.8 332.728 428.709 332.728C429.619 332.728 430.418 332.919 431.106 333.299C431.806 333.68 432.347 334.221 432.728 334.922C433.121 335.622 433.318 336.439 433.318 337.373V337.613C433.318 338.559 433.121 339.382 432.728 340.083C432.347 340.771 431.806 341.306 431.106 341.687C430.418 342.068 429.619 342.258 428.709 342.258ZM428.709 340.949C429.668 340.949 430.43 340.648 430.995 340.046C431.573 339.432 431.862 338.608 431.862 337.576V337.41C431.862 336.378 431.573 335.561 430.995 334.958C430.43 334.344 429.668 334.037 428.709 334.037C427.763 334.037 427.001 334.344 426.424 334.958C425.846 335.561 425.557 336.378 425.557 337.41V337.576C425.557 338.608 425.846 339.432 426.424 340.046C427.001 340.648 427.763 340.949 428.709 340.949ZM435.938 342V332.986H437.358V334.092H437.616C437.776 333.699 438.021 333.41 438.353 333.226C438.685 333.041 439.121 332.949 439.662 332.949H440.731V334.276H439.57C438.918 334.276 438.39 334.461 437.984 334.829C437.591 335.186 437.395 335.745 437.395 336.507V342H435.938ZM446.692 342.258C445.783 342.258 444.984 342.068 444.296 341.687C443.607 341.293 443.073 340.747 442.692 340.046C442.311 339.346 442.12 338.535 442.12 337.613V337.392C442.12 336.458 442.311 335.64 442.692 334.94C443.073 334.24 443.601 333.699 444.277 333.318C444.953 332.925 445.727 332.728 446.6 332.728C447.448 332.728 448.197 332.912 448.849 333.281C449.5 333.637 450.01 334.154 450.379 334.829C450.747 335.505 450.932 336.298 450.932 337.207V337.871H443.577C443.614 338.842 443.927 339.604 444.517 340.157C445.107 340.697 445.844 340.968 446.729 340.968C447.503 340.968 448.099 340.79 448.517 340.433C448.935 340.077 449.254 339.653 449.475 339.161L450.729 339.77C450.544 340.151 450.286 340.531 449.955 340.912C449.635 341.293 449.211 341.613 448.683 341.871C448.167 342.129 447.503 342.258 446.692 342.258ZM443.595 336.673H449.457C449.408 335.837 449.119 335.186 448.591 334.719C448.074 334.252 447.411 334.018 446.6 334.018C445.776 334.018 445.1 334.252 444.572 334.719C444.044 335.186 443.718 335.837 443.595 336.673ZM461.1 342V330.903H457.137V329.097H467.054V330.903H463.091V342H461.1ZM470.132 342.258C469.481 342.258 468.897 342.147 468.381 341.926C467.877 341.705 467.471 341.379 467.164 340.949C466.869 340.519 466.722 339.997 466.722 339.382C466.722 338.756 466.869 338.24 467.164 337.834C467.471 337.416 467.883 337.103 468.399 336.894C468.928 336.685 469.524 336.581 470.187 336.581H472.952V335.991C472.952 335.462 472.792 335.038 472.473 334.719C472.153 334.399 471.662 334.24 470.998 334.24C470.347 334.24 469.849 334.393 469.505 334.7C469.161 335.008 468.934 335.407 468.823 335.899L467.054 335.327C467.201 334.836 467.434 334.393 467.754 334C468.086 333.594 468.522 333.269 469.063 333.023C469.603 332.777 470.255 332.654 471.017 332.654C472.196 332.654 473.124 332.955 473.8 333.558C474.476 334.16 474.814 335.014 474.814 336.12V339.862C474.814 340.23 474.986 340.415 475.33 340.415H476.104V342H474.685C474.255 342 473.905 341.889 473.634 341.668C473.364 341.447 473.229 341.146 473.229 340.765V340.71H472.952C472.854 340.894 472.706 341.109 472.51 341.355C472.313 341.601 472.024 341.816 471.643 342C471.262 342.172 470.759 342.258 470.132 342.258ZM470.408 340.691C471.17 340.691 471.785 340.476 472.252 340.046C472.719 339.604 472.952 339.002 472.952 338.24V338.055H470.298C469.794 338.055 469.388 338.166 469.081 338.387C468.774 338.596 468.62 338.909 468.62 339.327C468.62 339.745 468.78 340.077 469.1 340.323C469.419 340.568 469.855 340.691 470.408 340.691ZM481.602 342.258C480.447 342.258 479.488 342 478.726 341.484C477.964 340.968 477.497 340.187 477.325 339.143L479.095 338.719C479.193 339.223 479.359 339.622 479.593 339.917C479.826 340.212 480.115 340.421 480.459 340.544C480.815 340.667 481.196 340.728 481.602 340.728C482.204 340.728 482.665 340.611 482.984 340.378C483.316 340.144 483.482 339.843 483.482 339.475C483.482 339.106 483.328 338.836 483.021 338.664C482.714 338.492 482.259 338.35 481.657 338.24L481.03 338.129C480.416 338.018 479.857 337.859 479.353 337.65C478.849 337.441 478.45 337.152 478.155 336.783C477.86 336.415 477.712 335.942 477.712 335.364C477.712 334.504 478.032 333.84 478.671 333.373C479.31 332.894 480.158 332.654 481.215 332.654C482.235 332.654 483.07 332.888 483.722 333.355C484.385 333.809 484.815 334.43 485.012 335.217L483.242 335.714C483.132 335.161 482.898 334.774 482.542 334.553C482.186 334.319 481.743 334.203 481.215 334.203C480.699 334.203 480.293 334.301 479.998 334.498C479.703 334.682 479.556 334.946 479.556 335.29C479.556 335.659 479.697 335.929 479.98 336.101C480.275 336.273 480.668 336.402 481.159 336.488L481.805 336.599C482.456 336.71 483.052 336.863 483.593 337.06C484.133 337.256 484.557 337.539 484.865 337.908C485.184 338.276 485.344 338.768 485.344 339.382C485.344 340.292 485.006 340.998 484.33 341.502C483.654 342.006 482.745 342.258 481.602 342.258ZM487.563 342V329.097H489.462V336.452H489.757L493.333 332.912H495.858L491.268 337.318L496.006 342H493.499L489.757 338.221H489.462V342H487.563ZM501.205 342.258C500.05 342.258 499.092 342 498.33 341.484C497.568 340.968 497.101 340.187 496.929 339.143L498.698 338.719C498.797 339.223 498.963 339.622 499.196 339.917C499.43 340.212 499.718 340.421 500.062 340.544C500.419 340.667 500.8 340.728 501.205 340.728C501.807 340.728 502.268 340.611 502.588 340.378C502.92 340.144 503.086 339.843 503.086 339.475C503.086 339.106 502.932 338.836 502.625 338.664C502.317 338.492 501.863 338.35 501.261 338.24L500.634 338.129C500.019 338.018 499.46 337.859 498.956 337.65C498.453 337.441 498.053 337.152 497.758 336.783C497.463 336.415 497.316 335.942 497.316 335.364C497.316 334.504 497.635 333.84 498.274 333.373C498.913 332.894 499.761 332.654 500.818 332.654C501.838 332.654 502.674 332.888 503.325 333.355C503.989 333.809 504.419 334.43 504.615 335.217L502.846 335.714C502.735 335.161 502.502 334.774 502.145 334.553C501.789 334.319 501.347 334.203 500.818 334.203C500.302 334.203 499.897 334.301 499.602 334.498C499.307 334.682 499.159 334.946 499.159 335.29C499.159 335.659 499.301 335.929 499.583 336.101C499.878 336.273 500.271 336.402 500.763 336.488L501.408 336.599C502.059 336.71 502.655 336.863 503.196 337.06C503.737 337.256 504.161 337.539 504.468 337.908C504.788 338.276 504.947 338.768 504.947 339.382C504.947 340.292 504.609 340.998 503.933 341.502C503.258 342.006 502.348 342.258 501.205 342.258Z" fill="black"/>
<circle opacity="0.2" cx="334.167" cy="335.5" r="13.1667" fill="#3CB265"/>
<rect x="328.9" y="334.842" width="10.5333" height="1.31667" fill="#3CB265"/>
<rect x="334.825" y="330.233" width="10.5333" height="1.31667" transform="rotate(90 334.825 330.233)" fill="#3CB265"/>
<circle cx="77.5" cy="77.5" r="77.5" fill="#5649CF"/>
<path fill-rule="evenodd" clip-rule="evenodd" d="M77.499 111.803C64.4935 111.803 53.9151 101.421 53.9151 88.6565C53.9151 75.892 64.4935 65.5097 77.499 65.5097C90.5001 65.5097 101.083 75.892 101.083 88.6565C101.083 101.421 90.5001 111.803 77.499 111.803ZM89.8955 91.9307L85.8219 86.9225L86.2678 80.3783C86.3193 79.6503 85.9806 78.9474 85.3674 78.5224C84.9943 78.2657 84.5612 78.1352 84.1239 78.1352C83.8409 78.1352 83.5536 78.1899 83.2877 78.3035L77.499 80.715L71.7145 78.3035C71.0284 78.0174 70.2394 78.0973 69.6348 78.5224C69.0259 78.9474 68.6872 79.6503 68.7343 80.3783L69.1803 86.9225L65.1067 91.9307C64.6522 92.4862 64.5193 93.2311 64.7465 93.9087C64.9738 94.5862 65.5355 95.0997 66.2388 95.2807L72.3191 96.842L75.6551 102.355C76.427 103.635 78.5709 103.635 79.3385 102.355L82.6745 96.842L88.7592 95.2807C89.4581 95.0997 90.0198 94.582 90.2514 93.9087C90.4829 93.2353 90.3457 92.4904 89.8955 91.9307Z" fill="white"/>
<path d="M53.3791 75.0083L43.4825 58.1448C43.0494 57.4041 43.1137 56.4825 43.6411 55.8091C44.1686 55.1357 45.0562 54.8327 45.8966 55.06L58.4861 58.3805L61.835 46.0243C62.058 45.2037 62.7655 44.5934 63.6231 44.4798C63.7174 44.4714 63.816 44.4672 63.9061 44.4672C64.665 44.4672 65.3769 44.8628 65.7628 45.5193L75.1234 61.419C65.8228 62.1934 57.83 67.4666 53.3791 75.0083Z" fill="white"/>
<path d="M101.619 75.0083L111.52 58.1448C111.949 57.4041 111.889 56.4825 111.357 55.8133C110.825 55.14 109.942 54.8369 109.101 55.0642L96.5119 58.3847L93.163 46.0285C92.9357 45.2079 92.2325 44.5976 91.3706 44.484C91.2806 44.4714 91.1819 44.4672 91.0919 44.4672C90.3329 44.4672 89.6211 44.8628 89.2352 45.5193L79.8746 61.419C89.1752 62.1934 97.1722 67.4666 101.619 75.0083Z" fill="white"/>
<defs>
<filter id="filter0_d_47_277" x="342" y="28" width="275" height="109" filterUnits="userSpaceOnUse" color-interpolation-filters="sRGB">
<feFlood flood-opacity="0" result="BackgroundImageFix"/>
<feColorMatrix in="SourceAlpha" type="matrix" values="0 0 0 0 0 0 0 0 0 0 0 0 0 0 0 0 0 0 127 0" result="hardAlpha"/>
<feMorphology radius="30" operator="erode" in="SourceAlpha" result="effect1_dropShadow_47_277"/>
<feOffset dx="25" dy="25"/>
<feGaussianBlur stdDeviation="12.5"/>
<feComposite in2="hardAlpha" operator="out"/>
<feColorMatrix type="matrix" values="0 0 0 0 0 0 0 0 0 0 0 0 0 0 0 0 0 0 0.1 0"/>
<feBlend mode="normal" in2="BackgroundImageFix" result="effect1_dropShadow_47_277"/>
<feBlend mode="normal" in="SourceGraphic" in2="effect1_dropShadow_47_277" result="shape"/>
</filter>
<filter id="filter1_d_47_277" x="292" y="296" width="363" height="99" filterUnits="userSpaceOnUse" color-interpolation-filters="sRGB">
<feFlood flood-opacity="0" result="BackgroundImageFix"/>
<feColorMatrix in="SourceAlpha" type="matrix" values="0 0 0 0 0 0 0 0 0 0 0 0 0 0 0 0 0 0 127 0" result="hardAlpha"/>
<feMorphology radius="30" operator="erode" in="SourceAlpha" result="effect1_dropShadow_47_277"/>
<feOffset dx="25" dy="25"/>
<feGaussianBlur stdDeviation="12.5"/>
<feColorMatrix type="matrix" values="0 0 0 0 0.583333 0 0 0 0 0.583333 0 0 0 0 0.583333 0 0 0 0.36 0"/>
<feBlend mode="normal" in2="BackgroundImageFix" result="effect1_dropShadow_47_277"/>
<feBlend mode="normal" in="SourceGraphic" in2="effect1_dropShadow_47_277" result="shape"/>
</filter>
</defs>
</svg>
