<svg width="100" height="26" viewBox="0 0 100 26" fill="none" xmlns="http://www.w3.org/2000/svg">
<path d="M1.73016 20V6H6.63016L9.05016 18.2H9.41016L11.8302 6H16.7302V20H14.1702V7.94H13.8102L11.4102 20H7.05016L4.65016 7.94H4.29016V20H1.73016ZM22.5269 20.28C21.8202 20.28 21.1869 20.16 20.6269 19.92C20.0669 19.6667 19.6202 19.3067 19.2869 18.84C18.9669 18.36 18.8069 17.78 18.8069 17.1C18.8069 16.42 18.9669 15.8533 19.2869 15.4C19.6202 14.9333 20.0735 14.5867 20.6469 14.36C21.2335 14.12 21.9002 14 22.6469 14H25.3669V13.44C25.3669 12.9733 25.2202 12.5933 24.9269 12.3C24.6335 11.9933 24.1669 11.84 23.5269 11.84C22.9002 11.84 22.4335 11.9867 22.1269 12.28C21.8202 12.56 21.6202 12.9267 21.5269 13.38L19.2069 12.6C19.3669 12.0933 19.6202 11.6333 19.9669 11.22C20.3269 10.7933 20.8002 10.4533 21.3869 10.2C21.9869 9.93333 22.7135 9.8 23.5669 9.8C24.8735 9.8 25.9069 10.1267 26.6669 10.78C27.4269 11.4333 27.8069 12.38 27.8069 13.62V17.32C27.8069 17.72 27.9935 17.92 28.3669 17.92H29.1669V20H27.4869C26.9935 20 26.5869 19.88 26.2669 19.64C25.9469 19.4 25.7869 19.08 25.7869 18.68V18.66H25.4069C25.3535 18.82 25.2335 19.0333 25.0469 19.3C24.8602 19.5533 24.5669 19.78 24.1669 19.98C23.7669 20.18 23.2202 20.28 22.5269 20.28ZM22.9669 18.24C23.6735 18.24 24.2469 18.0467 24.6869 17.66C25.1402 17.26 25.3669 16.7333 25.3669 16.08V15.88H22.8269C22.3602 15.88 21.9935 15.98 21.7269 16.18C21.4602 16.38 21.3269 16.66 21.3269 17.02C21.3269 17.38 21.4669 17.6733 21.7469 17.9C22.0269 18.1267 22.4335 18.24 22.9669 18.24ZM31.0094 20V10.08H33.5294V20H31.0094ZM32.2694 8.92C31.816 8.92 31.4294 8.77333 31.1094 8.48C30.8027 8.18667 30.6494 7.8 30.6494 7.32C30.6494 6.84 30.8027 6.45333 31.1094 6.16C31.4294 5.86667 31.816 5.72 32.2694 5.72C32.736 5.72 33.1227 5.86667 33.4294 6.16C33.736 6.45333 33.8894 6.84 33.8894 7.32C33.8894 7.8 33.736 8.18667 33.4294 8.48C33.1227 8.77333 32.736 8.92 32.2694 8.92ZM36.3219 20V6H38.8419V20H36.3219ZM41.5544 20V6H46.4544L48.8744 18.2H49.2344L51.6544 6H56.5544V20H53.9944V7.94H53.6344L51.2344 20H46.8744L44.4744 7.94H44.1144V20H41.5544ZM62.3511 20.28C61.6444 20.28 61.0111 20.16 60.4511 19.92C59.8911 19.6667 59.4444 19.3067 59.1111 18.84C58.7911 18.36 58.6311 17.78 58.6311 17.1C58.6311 16.42 58.7911 15.8533 59.1111 15.4C59.4444 14.9333 59.8978 14.5867 60.4711 14.36C61.0578 14.12 61.7244 14 62.4711 14H65.1911V13.44C65.1911 12.9733 65.0444 12.5933 64.7511 12.3C64.4578 11.9933 63.9911 11.84 63.3511 11.84C62.7244 11.84 62.2578 11.9867 61.9511 12.28C61.6444 12.56 61.4444 12.9267 61.3511 13.38L59.0311 12.6C59.1911 12.0933 59.4444 11.6333 59.7911 11.22C60.1511 10.7933 60.6244 10.4533 61.2111 10.2C61.8111 9.93333 62.5378 9.8 63.3911 9.8C64.6978 9.8 65.7311 10.1267 66.4911 10.78C67.2511 11.4333 67.6311 12.38 67.6311 13.62V17.32C67.6311 17.72 67.8178 17.92 68.1911 17.92H68.9911V20H67.3111C66.8178 20 66.4111 19.88 66.0911 19.64C65.7711 19.4 65.6111 19.08 65.6111 18.68V18.66H65.2311C65.1778 18.82 65.0578 19.0333 64.8711 19.3C64.6844 19.5533 64.3911 19.78 63.9911 19.98C63.5911 20.18 63.0444 20.28 62.3511 20.28ZM62.7911 18.24C63.4978 18.24 64.0711 18.0467 64.5111 17.66C64.9644 17.26 65.1911 16.7333 65.1911 16.08V15.88H62.6511C62.1844 15.88 61.8178 15.98 61.5511 16.18C61.2844 16.38 61.1511 16.66 61.1511 17.02C61.1511 17.38 61.2911 17.6733 61.5711 17.9C61.8511 18.1267 62.2578 18.24 62.7911 18.24ZM70.8336 20V6H73.3536V13.74H73.7136L76.9936 10.08H80.2736L75.6936 14.88L80.4336 20H77.1936L73.7136 16.06H73.3536V20H70.8336ZM86.0372 20.28C85.0505 20.28 84.1772 20.0733 83.4172 19.66C82.6705 19.2333 82.0839 18.64 81.6572 17.88C81.2439 17.1067 81.0372 16.2 81.0372 15.16V14.92C81.0372 13.88 81.2439 12.98 81.6572 12.22C82.0705 11.4467 82.6505 10.8533 83.3972 10.44C84.1439 10.0133 85.0105 9.8 85.9972 9.8C86.9705 9.8 87.8172 10.02 88.5372 10.46C89.2572 10.8867 89.8172 11.4867 90.2172 12.26C90.6172 13.02 90.8172 13.9067 90.8172 14.92V15.78H83.5972C83.6239 16.46 83.8772 17.0133 84.3572 17.44C84.8372 17.8667 85.4239 18.08 86.1172 18.08C86.8239 18.08 87.3439 17.9267 87.6772 17.62C88.0105 17.3133 88.2639 16.9733 88.4372 16.6L90.4972 17.68C90.3105 18.0267 90.0372 18.4067 89.6772 18.82C89.3305 19.22 88.8639 19.5667 88.2772 19.86C87.6905 20.14 86.9439 20.28 86.0372 20.28ZM83.6172 13.9H88.2572C88.2039 13.3267 87.9705 12.8667 87.5572 12.52C87.1572 12.1733 86.6305 12 85.9772 12C85.2972 12 84.7572 12.1733 84.3572 12.52C83.9572 12.8667 83.7105 13.3267 83.6172 13.9ZM93.0602 20V10.08H95.5402V11.2H95.9002C96.0468 10.8 96.2868 10.5067 96.6202 10.32C96.9668 10.1333 97.3668 10.04 97.8202 10.04H99.0202V12.28H97.7802C97.1402 12.28 96.6135 12.4533 96.2002 12.8C95.7868 13.1333 95.5802 13.6533 95.5802 14.36V20H93.0602Z" fill="black"/>
</svg>
