<svg width="111" height="52" viewBox="0 0 111 52" fill="none" xmlns="http://www.w3.org/2000/svg">
<path d="M81.4358 22.1333C81.4358 19.0802 79.2865 17.0775 76.1602 17.0775H69.0283V34.1744H71.4707V27.1891H74.8413L78.4561 34.1744H81.1427L77.3326 27.0914C79.775 26.6273 81.4358 24.7711 81.4358 22.1333ZM71.4707 19.3245H75.8915C77.9187 19.3245 78.9934 20.3259 78.9934 22.1333C78.9934 23.9407 77.8699 24.942 75.8915 24.942H71.4707V19.3245Z" fill="black"/>
<path d="M84.0788 17.0775V34.1744H91.1862C94.1171 34.1744 96.242 32.4403 96.242 29.5582C96.242 27.5554 94.9964 26.2121 93.36 25.748V25.455C95.0697 25.0153 96.1932 23.672 96.1932 21.6692C96.1932 18.7383 94.0927 17.0775 91.1374 17.0775H84.0788ZM86.5212 19.3245H90.9176C92.6517 19.3245 93.8485 20.3014 93.8485 21.8646C93.8485 23.501 92.725 24.478 90.9664 24.478H86.5212V19.3245ZM86.5212 26.725H91.0153C92.7738 26.725 93.8973 27.7264 93.8973 29.3628C93.8973 30.9504 92.7005 31.9274 90.9664 31.9274H86.5212V26.725Z" fill="black"/>
<path d="M104.601 16.7355C101.426 16.7355 98.8862 18.5673 98.8862 21.4738C98.8862 24.649 101.109 25.7969 104.162 26.4563L105.285 26.7006C107.459 27.1646 108.558 27.8241 108.558 29.4605C108.558 31.0969 107.19 32.3182 104.919 32.3182C102.11 32.3182 100.547 30.8283 100.547 28.1172V27.531H98.1046V28.3126C98.1046 32.0739 100.718 34.5163 104.895 34.5163C108.412 34.5163 111.001 32.538 111.001 29.3873C111.001 26.4563 109.071 25.0886 105.896 24.4047L104.772 24.1605C102.354 23.6231 101.329 23.0125 101.329 21.4494C101.329 19.9351 102.696 18.9337 104.601 18.9337C106.848 18.9337 108.412 20.1061 108.412 22.3042V22.8904H110.854V22.1088C110.854 18.6162 108.143 16.7355 104.601 16.7355Z" fill="black"/>
<circle cx="26.075" cy="25.9997" r="25.2664" fill="#2E8DF0"/>
<path d="M18.8649 25.9721H17.3139C16.9842 25.9721 16.6785 25.7746 16.581 25.4788C16.3003 24.6523 15.4942 24.3559 15.4942 24.3559C15.2012 24.245 14.9813 23.9617 14.9813 23.6164V22.0495C14.9813 21.619 15.3355 21.2736 15.7627 21.2736C16.1902 21.2736 16.5322 21.5942 16.5322 22.0495L16.5202 23.3076L18.3151 21.4957C18.387 21.4224 18.4726 21.3641 18.5669 21.3244C18.6613 21.2846 18.7625 21.2641 18.8647 21.2641C18.9669 21.2641 19.0681 21.2846 19.1624 21.3244C19.2567 21.3641 19.3423 21.4224 19.4142 21.4957C19.7196 21.8024 19.7196 22.3082 19.4142 22.617L17.6433 24.3932H18.8649C19.2927 24.3932 19.6463 24.751 19.6463 25.1821C19.6463 25.6143 19.2927 25.9721 18.8649 25.9721ZM18.8526 27.87L17.6069 27.8579L19.402 29.671C19.4746 29.7437 19.5322 29.8302 19.5715 29.9255C19.6108 30.0208 19.631 30.1231 19.631 30.2263C19.631 30.3296 19.6108 30.4318 19.5715 30.5271C19.5322 30.6224 19.4746 30.7089 19.402 30.7816C19.33 30.8548 19.2444 30.913 19.1501 30.9527C19.0558 30.9923 18.9547 31.0127 18.8525 31.0127C18.7504 31.0127 18.6493 30.9923 18.555 30.9527C18.4607 30.913 18.3751 30.8548 18.3031 30.7816L16.5323 28.9926V30.2257C16.5323 30.6948 16.1783 31.0157 15.7505 31.0157C15.3234 31.0157 14.9691 30.6579 14.9691 30.2257V28.6596C14.9691 28.3262 15.1766 28.0175 15.47 27.9194C16.288 27.6355 16.5688 26.8226 16.5688 26.8226C16.6786 26.5269 16.972 26.3048 17.3016 26.3048H18.8526C19.28 26.3048 19.6343 26.663 19.6343 27.0938C19.6343 27.5245 19.317 27.87 18.8526 27.87ZM13.859 31.0032C13.4315 31.0032 13.0895 30.7194 13.1016 30.2257L13.1138 28.9678L11.3187 30.7816C11.0137 31.0897 10.5127 31.0897 10.22 30.7816C9.91429 30.4728 9.91429 29.9668 10.22 29.671L11.9781 27.8821H10.7693C10.6666 27.8825 10.565 27.8624 10.4701 27.8229C10.3752 27.7834 10.2889 27.7254 10.2163 27.6521C10.1437 27.5789 10.0861 27.4918 10.047 27.396C10.0078 27.3002 9.9877 27.1975 9.98794 27.0939C9.98768 26.9902 10.0077 26.8874 10.0469 26.7916C10.0861 26.6957 10.1436 26.6086 10.2162 26.5353C10.2888 26.462 10.3751 26.4039 10.47 26.3644C10.5649 26.3248 10.6666 26.3046 10.7693 26.3049H12.3204C12.6498 26.3049 12.9432 26.5025 13.0529 26.7981C13.3337 27.6356 14.1274 27.9195 14.1274 27.9195C14.4325 28.0304 14.6408 28.3143 14.6408 28.6597V30.2258C14.6408 30.658 14.2985 31.0033 13.8591 31.0033L13.859 31.0032ZM14.1398 24.3687C13.3214 24.6648 13.0407 25.4662 13.0407 25.4662C12.9305 25.7622 12.6378 25.9847 12.3078 25.9847H10.757C10.3296 25.9846 9.97559 25.6267 9.97559 25.195C9.97559 24.7635 10.2687 24.4181 10.757 24.4181L12.0031 24.4302L10.2075 22.617C10.1349 22.5444 10.0773 22.4581 10.038 22.3629C9.99869 22.2677 9.97845 22.1656 9.97845 22.0624C9.97845 21.9593 9.99869 21.8572 10.038 21.762C10.0773 21.6668 10.1349 21.5804 10.2075 21.5078C10.2794 21.4345 10.365 21.3763 10.4593 21.3366C10.5536 21.2969 10.6548 21.2765 10.757 21.2765C10.8592 21.2765 10.9604 21.2969 11.0547 21.3366C11.149 21.3763 11.2346 21.4345 11.3066 21.5078L13.0773 23.2955V22.062C13.0773 21.6315 13.4193 21.2736 13.859 21.2736C14.2861 21.2736 14.6281 21.6315 14.6281 22.0619V23.6282C14.6281 23.9618 14.4325 24.2697 14.1397 24.3687H14.1398ZM39.3644 31.0647C38.5341 31.0647 37.4842 30.9295 36.9597 30.7689L37.3751 29.0415C37.7523 29.2146 38.5953 29.4858 39.3644 29.4858C40.2928 29.4858 40.9887 29.0788 40.9887 28.2519C40.9887 27.5493 40.561 27.18 39.3644 26.7122C38.1435 26.231 37.1306 25.6387 37.1306 23.8873C37.1306 22.1728 38.4729 21.2241 40.5124 21.2241C41.3793 21.2241 42.2585 21.3968 42.7837 21.5696L42.3809 23.2459C42.0266 23.0487 41.3427 22.8017 40.5124 22.8017C39.5231 22.8017 39.0837 23.1844 39.0837 23.8376C39.0837 24.5044 39.5719 24.751 40.6342 25.2197C42.1002 25.849 43.0163 26.4777 43.0163 28.1286C43.0163 29.9545 41.5749 31.0647 39.3644 31.0647ZM32.8078 26.7489H31.685V29.5102H32.8686C33.7971 29.5102 34.5173 29.1403 34.5173 28.1171C34.5173 27.1799 33.8459 26.7489 32.8077 26.7489H32.8078ZM32.8198 22.8145H31.685V25.3184H32.7343C33.5282 25.3184 34.2123 24.8867 34.2123 24.0231C34.2123 23.2087 33.7236 22.8145 32.8198 22.8145ZM32.9176 30.979H29.8412V21.3474H33.0763C34.9328 21.3474 36.154 22.2594 36.154 23.8629C36.154 24.9979 35.4088 25.6387 34.7006 25.9226C35.6775 26.1817 36.4713 26.8598 36.4713 28.1286C36.4713 29.8066 35.1893 30.979 32.9176 30.979ZM25.1285 22.8266H24.188V25.5771H24.9209C25.9102 25.5771 26.6294 25.1454 26.6294 24.2079C26.6294 23.3813 26.1041 22.8266 25.1285 22.8266ZM26.8982 30.9789C26.3239 29.8067 25.2873 27.9563 24.6763 26.9952H24.1879V30.979H22.356V21.3474H25.3729C27.3621 21.3474 28.5467 22.3085 28.5467 24.2325C28.5467 25.5523 27.6063 26.3665 26.6177 26.6998C27.2523 27.5737 28.4735 29.7202 29.084 30.979L26.8982 30.9789Z" fill="white"/>
</svg>
